<?xml version="1.0" encoding="utf-8"?>
<!-- Generator: Adobe Illustrator 27.9.0, SVG Export Plug-In . SVG Version: 6.00 Build 0)  -->
<svg version="1.1" id="Layer_1" xmlns="http://www.w3.org/2000/svg" xmlns:xlink="http://www.w3.org/1999/xlink" x="0px" y="0px"
	 viewBox="0 0 1000 1000" style="enable-background:new 0 0 1000 1000;" xml:space="preserve">
<style type="text/css">
	.st0{fill:#FFFFFF;}
	.st1{fill:#FEB4AF;}
	.st2{fill:#5FD5F8;}
	.st3{fill:#D5E9A0;}
	.st4{fill:#E12D15;}
	.st5{fill:#B1D8F7;}
	.st6{fill:#2276C2;}
	.st7{fill:#FBDC00;}
	.st8{fill:#F7A5AC;}
	.st9{fill:#D2EB00;}
	.st10{fill:#B98AC7;}
	.st11{fill:#530400;}
	.st12{fill:#219051;}
	.st13{fill:#83D0E0;}
	.st14{fill:#E11E9D;}
	.st15{fill:#E8EB00;}
</style>
<g>
	<path fill="#ffffff" d="M359.99,414.85c-8.4-12.75-17.55-25.03-26.94-37.09c-5.5-7.06-5.32-13.05,0.19-19.89c11.34-14.07,22.36-28.38,33.38-42.7
		c2.08-2.7,6.59-5.62,3.34-9.31c-2.83-3.22-7.08-0.41-10.28,1.06c-10.03,4.61-15.87,13.96-23.47,21.34
		c-5.11,4.96-8.51,15.57-16.2,13.07c-8.13-2.64-3.99-12.98-4.27-19.89c-0.75-18.7-2.28-20.6-20.92-20.9
		c-16.4-0.26-23.32,7.02-15.6,17.58c7.83,10.7,8.16,22.47,9.2,34.25c1.51,17.06,1.44,34.25,2.95,51.31c0.58,6.55-2.79,17.46,8,17.76
		c11.25,0.31,7.15-10.56,8.44-17.15c0.27-1.36,0.06-2.84,0.48-4.13c1.63-4.99-0.26-13.02,6.59-13.81c5.98-0.69,8.7,6.34,10.97,11.17
		c4.32,9.2,7.44,18.95,11.65,28.2c3.81,8.38,15.07,10.43,25.25,4.15C373.15,423.45,362.67,418.92,359.99,414.85z"/>
	<path fill="#ffffff" d="M450.6,566.76c6.64-6.71-1.74-9.53-4.66-12.99c-8.35-9.87-17.02-19.54-26.27-28.57c-8.17-7.97-8.04-15.14-1.92-24.38
		c9.82-14.85,18.56-30.42,27.75-45.68c-18.48,2.6-25.39,15.95-33.74,28.05c-2.62,3.79-5.26,10.16-11.52,7.81
		c-5.33-2-3.39-7.96-3.74-12.36c-1.79-22.55-6.28-25.84-28.11-20.96c-8.26,1.85-12.04,7.41-7.6,14.02
		c14.37,21.42,15.14,46.09,18.75,70.16c0.96,6.39,1.52,12.87,2.92,19.17c0.99,4.45,4.08,7.23,9.19,6.31
		c4.56-0.83,5.73-4.08,5.72-8.16c0-4.62-0.2-9.27,0.16-13.87c0.34-4.29-1.52-10.12,4.73-11.54c5-1.13,7.3,3.51,9.39,6.89
		c5.09,8.25,9.48,16.93,14.56,25.19C430.4,572.66,444.1,573.33,450.6,566.76z"/>
	<path fill="#ffffff" d="M385.44,419.31c7.61,0.74,10.9-3.88,11.09-11.01c0.19-6.95,0.14-13.9,0.37-20.85c0.15-4.47,1.51-8.42,6.69-9.13
		c4.98-0.68,7.72,2.49,9.44,6.58c1.25,2.98,2.16,6.11,3.06,9.22c5.6,19.22,11.17,22.9,30.47,19.94c5.08-0.78,10.81-1.31,11.04-8.14
		c0.23-7.1-5.79-5.54-10.06-6.51c-16.94-3.86-24.12-24.6-12.5-37.03c7-7.49,9.63-15.25,6.73-25.29
		c-4.2-14.53-18.97-23.37-42.12-25.74c-12.31-1.26-18.61,2.48-18.3,15.56c0.32,13.43,0.07,26.87,0.07,40.31c-0.63,0-1.25,0-1.88,0
		c0,13.42,0,26.85,0,40.27C379.56,412.43,377.85,418.57,385.44,419.31z M406.36,328.5c7.11,1.34,15.07,4.85,14.48,14.13
		c-0.49,7.63-6.09,13.47-13.64,13.29c-10.38-0.24-7.05-9.85-8.62-15.79C399.55,334.84,397.54,326.85,406.36,328.5z"/>
	<path fill="#ffffff" d="M539.04,536.02c-5.06-1.02-9.77-2.79-13.97-5.8c-14.98-10.71-16.68-18.49-7.45-33.97c12.65-21.21,8.35-32.64-15.27-40.17
		c-6.15-1.96-12.39-3.81-18.71-5.05c-10.34-2.02-16.09,2.14-15.84,13.17c0.61,27.22-1.57,54.51,2.5,81.64
		c0.7,4.68,0.15,9.82,7.05,9.41c5.49-0.32,11.85-0.09,13.87-6.68c1.31-4.3,0.84-9.13,1.25-13.72c0.32-3.56-0.82-8.71,3.51-9.53
		c4.46-0.85,5.75,4.22,6.39,7.66c2.55,13.77,10,20.07,22.47,16.85c5.43,0,9.13,0.12,12.82-0.03c4.66-0.19,10.32-0.26,10.96-6.06
		C549.28,537.67,543.56,536.93,539.04,536.02z M488.53,489.36c-8.58,1.16-8.81-5.89-9.77-11.42c0.09-6.29,1.06-11.83,8.74-11.33
		c6.21,0.41,12.44,2.62,12.79,9.85C500.65,483.81,495.45,488.42,488.53,489.36z"/>
	<path fill="#ffffff" d="M658.32,481.01c4.5-23.11-1.42-31.33-25.08-35.61c-10.37-1.87-17.01,1.13-18.27,12.84c-2.82,26.18-6.08,52.32-9.16,78.48
		c-0.85,9.94,3.01,13.98,13.13,11.6c8.53-2.01,17.21-3.39,25.77-5.27c24.94-5.48,33.64-32.72,16.61-52.16
		C658.69,487.87,657.5,485.24,658.32,481.01z M635.51,527.85c-8.7-0.21-9.04-6.17-9.11-11.9c0.51-7.82,1.04-15.71,11.23-13.89
		c6.82,1.22,15.73,1.23,16.9,11.14C655.36,520.25,644.58,528.07,635.51,527.85z"/>
	<path fill="#ffffff" d="M662.12,360.51c13.55,21.24,10.1,40.09-6.68,57.73c-2.14,2.25-3.32,5.55-4.45,8.55c-1.27,3.36-3.36,7.44,0.81,9.99
		c4.96,3.04,7.48-1.19,9.99-4.52c23.41-31.05,49.17-60.15,74.26-89.81c3.28-3.88,6.48-7.9,7.01-12.8c-0.13-4.91-3.2-6.94-6.77-8.33
		c-6.19-2.41-12.16-1.77-16.45,3.49c-7.3,8.95-14.09,18.32-21.09,27.51c-10.02,13.17-10.75,13.29-19.53-0.49
		c-3.54-5.56-7.84-8.04-13.86-5.39C658.49,349.47,658.95,355.54,662.12,360.51z"/>
	<path fill="#ffffff" d="M584.11,462.04c-10.52-4.73-22.13-6.47-33.85-5.06c-3.78,0.45-7.67,1.61-7.82,6.27c-0.15,4.95,4.15,4.87,7.61,6.23
		c6.64,2.61,19.61-0.85,18.64,8.43c-0.85,8.09-13.26,4.86-20.66,5.17c-14.4,0.61-17.4,9.45-17.33,21.46
		c0.09,16.78,4.53,23.33,17.34,24.52c8.28,0.77,16.43,1.64,24.18,5.26c9.21,4.3,15.29,1.57,16.45-9.13
		c1.28-11.91,2.4-23.84,3.59-35.78C589.49,480.08,596.58,467.64,584.11,462.04z M576.82,504.26c-0.48,8.11-7.78,9.45-14.43,9.79
		c-6.3,0.33-11.27-2.53-11.45-9.21c-0.23-8.59,6.82-8.31,13.06-8.9C569.38,496.85,577.35,495.37,576.82,504.26z"/>
	<path fill="#ffffff" d="M495.31,359.77c-0.56,5.35-3.14,10.37-9.37,10.17c-6.03-0.2-6.75-5.64-7-10.29c-0.52-9.71-0.34-19.47-1.02-29.16
		c-0.39-5.56,1.32-13.58-7.36-13.97c-9.04-0.4-11.29,6.89-11.58,14.32c-0.38,9.71-0.51,19.46-0.15,29.17
		c0.69,18.69,4.29,21.96,23.42,23.04c6.66,0.38,14.6-1.32,16.46,8.57c1.24,6.57,6.03,7.74,11.56,6.84c6.14-1,6.22-6.01,6.24-10.74
		c0.05-9.73,0.02-19.46,0-29.19c-0.02-9.27,0.07-18.54-0.05-27.8c-0.07-5.94,0.98-12.48-8.42-12.73
		c-9.36-0.25-10.36,5.69-10.75,12.69C496.76,340.38,496.32,350.11,495.31,359.77z"/>
	<path fill="#ffffff" d="M541.64,328.33c1.46,6.03,6.3,10.06,10.64,14.28c8.27,8.03,17.62,15,23.65,25.22c4.3,7.28,6.62,14.45,1.43,22.02
		c-4.82,7.03-12.23,7.73-19.88,6.99c-5.17-0.5-10.83-1.46-11.73-7.65c-0.86-5.92,4.91-5.53,8.59-6.91c3.27-1.23,5.98-3.15,4.97-7.12
		c-0.99-3.85-4.39-4.73-7.74-4.26c-7.89,1.1-18.11-0.76-19.62,10.85c-1.42,10.9,1.77,20.82,13.07,24.85
		c6.84,2.44,14.51,2.51,17.92,3.05c24.13,0.76,27.64-2.78,30.58-22.84c3-20.49-6.61-34.56-21.24-46.79c-3-2.51-7.79-5.03-5.77-9.98
		c1.8-4.42,6.33-2.54,9.86-2.22c4.59,0.42,8.81-0.31,9.45-5.62c0.68-5.63-3.86-6.8-8.15-7.29c-8.27-0.96-16.56-2.06-24.87-2.33
		C541.71,312.23,539.44,319.25,541.64,328.33z"/>
	<path fill="#ffffff" d="M611.18,340.36c11.18-0.23,14.3,5.92,14.27,15.68c-0.04,15.22,0.08,30.45,0.42,45.67c0.12,5.5-2.4,13.29,7.29,13.28
		c9.68-0.01,8.77-7.67,8.84-14.04c0.16-15.22-0.04-30.45,0.15-45.68c0.15-11.82-1.81-24.94,15.55-27.22
		c2.64-0.35,5.13-2.89,4.35-6.11c-0.85-3.48-4.1-2.96-6.85-2.96c-6.92,0.02-13.84,0.01-20.76,0.01c0,0.05,0,0.1,0,0.15
		c-7.38,0-14.76-0.07-22.15,0.02c-6.91,0.08-13.42,1.28-13.78,9.99C598.16,337.65,604.04,340.51,611.18,340.36z"/>
	<path fill="#ffffff" d="M462.48,285.35c5.19,1.23,7.23-2.19,8.85-6.58c3.13-8.52,8.05-8.2,12.89-1.52c2.33,3.21,4.22,6.46,8.67,4.74
		c4.18-1.62,4.24-5.67,4.32-9.41c0.09-4.17,0.02-8.33,0.03-12.5c0.01-3.24,0.42-6.55-0.09-9.71c-0.7-4.35,2.82-11.32-5.58-11.59
		c-5.97-0.2-9.17,3.5-9.85,9.49c-0.57,5.08-0.99,11.44-7.82,10.95c-6.14-0.44-4.86-6.78-5.65-11.14c-0.47-2.62-0.42-6.15-4.41-5.66
		c-3.27,0.4-4.28,3.44-4.45,6.24c-0.53,8.77-0.96,17.56-1.07,26.35C458.29,278.86,456.66,283.97,462.48,285.35z"/>
	<path fill="#ffffff" d="M407.62,253.15c10.53,5.03,10.19,12.87,11.89,21.05c0.89,4.27-0.29,10.16,6.74,9.7c6.12-0.41,6.58-5.31,6.75-10.15
		c0.35-9.44-1.37-19.45,8.31-26.12c2.22-1.53,2.26-4.98,1.18-7.72c-1.01-2.57-3.08-3.11-6.38-1.93c-7.37,0.91-15.76,1.11-23.66,3.2
		C406.72,242.67,399.23,249.14,407.62,253.15z"/>
	<path fill="#ffffff" d="M533.89,283.21c4.47-0.32,10.11,0.54,10.47-6.11c0.36-6.63-5.19-6.89-9.71-7.09c-11.45-0.5-6.32-10.16-8.9-15.53
		c-3.08-6.42,1.2-8.04,6.14-9.36c2.56-0.68,6.04-1.16,4.59-5.15c-0.95-2.62-3.72-2.04-5.99-2.1c-12.84-0.35-15.76,4.2-16.34,25.61
		C513.57,284.44,513.77,284.65,533.89,283.21z"/>
	<path fill="#ffffff" d="M787.56,686.23c-4.19-12.4-14.86-17.13-27.23-18.02c-12.45-0.9-23.59,2.44-33.99,9.73c-7.75,5.44-15.63,13.94-26.08,10.63
		c-23.91-7.58-47.58-4.08-71.51-1.27c-9.15,1.08-18.51,0.8-27.75,0.41c-4.95-0.21-11.1-1-11.25-7.78
		c-0.13-5.75,4.51-8.97,9.49-10.75c8.02-2.87,15.7-0.21,22.9,2.91c12.21,5.29,25.19,6.23,38.04,6.78
		c12.71,0.55,22.28-6.31,27.75-17.57c4.35-8.97,3.35-18.07-3.37-26.01c-8.22-9.72-18.82-11.04-30.35-8.24
		c-6.67,1.62-13.19,3.85-20.95,6.15c31.04-34.33,63.51-64.54,88.87-101.39C733,516.05,741.1,499,750.8,482.73
		c23.97-40.2,38.24-82.56,34.58-130.54c-3.3-43.33-15.34-60-56.81-68.9c-22.47-4.82-39.22-15.04-44.85-39.39
		c-2.15-9.29-7.55-17.6-15.51-24.14c-16.29-13.38-33.9-10.38-51.27-4.38c-11.72,4.05-22.04,3.69-31.01-4.64
		c-8.78-8.16-18.3-15.4-26.08-24.86c-21.92-26.67-47.13-31.04-78.01-15.2c-10.47,5.37-19.01,13.23-27.63,20.9
		c-19.72,17.53-26.42,18.52-49.26,5.77c-23.36-13.04-45.33-9.66-64.33,9.02c-8.55,8.41-14.23,18.17-17.88,29.33
		c-3.11,9.51-9.11,16.66-16.12,23.78c-13.5,13.71-30.3,12.77-46.78,12.04c-17.88-0.8-28.35,8.55-36.99,22.29
		c-10.4,16.54-12.01,34.73-10.98,53.54c0.96,17.53-2.74,35.31,1.98,52.59c17.9,65.57,60.86,115.65,103.61,165.65
		c15.07,17.63,29.85,35.24,43.25,56.4c-22.42-4.7-37.51,3.9-40.29,20.94c-2.45,15.02,11.82,29,31.05,29.82
		c4.98,0.21,10.04-1.25,15.06-1.92c6.09-0.82,12.06-3.72,21.18-1.03c-17.96,5.73-33.09,11.25-49.71,7.06
		c-13.72-3.47-26.67-0.51-39.22,5.07c-16.28,7.24-21.2,26.55-10.07,40.68c4.27,5.42,9.01,10.64,15.43,13.8
		c5.52,2.72,10.16,6.67,13.74,11.53c17.45,23.64,39.82,41.19,66.14,53.85c28.31,13.61,55.89,27.98,88.97,28.79
		c27.52,0.68,55.4-1.19,82.76,6.42c12.27,3.41,25.86,0.47,38.35-3.67c10.6-3.52,21.44-5.42,32.47-7.14
		c13.71-2.14,28.44,0.75,41.11-5.53c34.81-17.26,67.67-36.87,82.64-76.13c4.97-13.04,13.06-24.67,24.27-33.32
		C783.09,704.69,791.59,698.15,787.56,686.23z M677.64,699.34c-18.76,7.37-37.98,4.72-57.18,2.58
		C639.2,694.07,658.18,691.39,677.64,699.34z M575.44,643.23c14.57-10.55,29.15-21.1,43.72-31.64
		C611.76,631.68,593.96,637.94,575.44,643.23z M650.99,588.68c0.15-8.03,6.02-15.31,23.44-27.69
		C667.12,570.51,663.84,583.58,650.99,588.68z M347.15,545.67c-8.95-8.59-17.92-17.19-26.77-25.92
		c-26.14-25.8-51.2-52.67-71.48-83.21c-15.4-23.19-28.23-50.09-29.67-78.31c-0.97-18.92-0.02-57.12,17.68-68.14
		c10.9-6.78,24.33-7.65,37.13-8.6s26.31-2.47,36.57-10.19c23.21-17.46,21.82-60.1,49.51-68.87c23.68-7.5,46.76,17.94,71.46,15.4
		c29.63-3.05,45.19-43.8,74.95-44.96c36.86-1.44,52.68,57.44,89.55,58.45c20.1,0.55,40.52-17.23,58.4-8.03
		c18.8,9.68,14.91,38.96,28.92,54.8c14.6,16.51,41.49,11.94,61.45,21.27c20.35,9.51,31.19,33.2,31.23,55.66
		c0.05,22.46-8.83,43.94-18.92,64.01c-35.32,70.23-87.68,131.83-151.31,178c-24.46,17.75-51.48,33.59-81.42,37.75
		c-33.97,4.73-68.64-6.21-98.08-23.81C396.94,593.37,371.91,569.41,347.15,545.67z M445.89,648.61
		c-10.67,6.45-18.31,3.97-23.97-3.27c-9.65-12.35-20.08-23.94-30.74-35.6C408.97,622.89,424.85,638.46,445.89,648.61z
		 M409.89,684.52c-15.48,11.02-32,8.09-49.04,8.34C369.26,682.88,393.2,678.91,409.89,684.52z M300.85,696.82
		c8.31-11.69,18.18-14.03,32.36-7.95C322.22,691.57,312,694.08,300.85,696.82z M334.92,747.11c16.01,2.16,30.69,6.51,39.48,21.4
		c5.92,10.02,17.32,11.52,26.48,16.47c14.26,7.71,31.92,9.52,44.16,26.25C398.44,803.48,367.98,773,334.92,747.11z M547.98,795.61
		c-30.57,29.97-60.3,30.27-91.31,1.05c-10.37-9.77-21.14-19.27-28.03-33.44c15.59,6.45,31.18,12.93,46.79,19.34
		c1.7,0.7,3.71,1.83,5.29,1.48c18.36-4.07,37.81,3.17,55.76-5.72c7.86-3.89,19.12-8.14,23.88-0.6
		C564.21,783.8,553.35,790.34,547.98,795.61z M561.52,818.45c35.62-16.64,68.12-38.51,102.85-61.9
		C650.13,791.76,596.14,823.97,561.52,818.45z M654.31,806.7c14.03-15.82,51.65-40.81,73.36-47.96
		C707.97,785.73,686.02,802.09,654.31,806.7z"/>
</g>
</svg>
